<?xml version="1.0" standalone="no"?>
<!DOCTYPE svg PUBLIC "-//W3C//DTD SVG 20010904//EN"
 "http://www.w3.org/TR/2001/REC-SVG-20010904/DTD/svg10.dtd">
<svg version="1.0" xmlns="http://www.w3.org/2000/svg"
 width="438.000000pt" height="270.000000pt" viewBox="128.000000 134.000000 438.000000 270.000000"
 preserveAspectRatio="xMidYMid meet">
<g transform="translate(0.000000,590.000000) scale(0.100000,-0.100000)"
fill="#6B4F3A" stroke="none">
<path d="M4000 4482 c0 -5 24 -33 53 -62 l52 -53 -27 -8 c-34 -9 -155 -76
-163 -89 -10 -16 45 -32 106 -32 38 1 70 8 95 21 21 12 47 21 56 21 20 0 24
15 8 25 -6 3 -22 -3 -38 -13 -24 -18 -82 -27 -134 -23 -62 4 47 59 123 62 51
2 156 -15 168 -27 9 -8 -13 -18 -88 -39 -71 -19 -89 -38 -49 -50 75 -24 195
24 156 63 -6 6 0 12 18 16 27 7 27 7 7 29 -11 12 -27 34 -36 49 -22 36 -93 84
-142 96 -61 15 -165 24 -165 14z m185 -56 c52 -25 113 -80 98 -89 -5 -3 -36 1
-69 9 -43 12 -72 28 -109 60 l-49 44 39 0 c22 0 63 -11 90 -24z"/>
<path d="M3753 4432 c42 -43 44 -49 20 -69 -17 -14 -17 -14 2 -7 11 4 49 8 85
10 l65 2 -28 -24 c-23 -20 -39 -24 -93 -24 -37 0 -64 4 -64 10 0 6 -13 4 -30
-5 -47 -24 -36 -35 36 -35 92 0 151 17 176 50 11 16 34 31 52 34 l31 7 -40 34
c-49 42 -90 55 -180 55 l-69 0 37 -38z m142 -6 c51 -22 43 -30 -21 -22 -63 7
-77 13 -69 27 9 13 51 11 90 -5z"/>
<path d="M4340 4467 c0 -3 38 -43 85 -89 82 -81 106 -122 67 -111 -26 6 -232
-94 -232 -113 0 -19 88 -59 168 -75 48 -10 74 -10 128 0 60 11 123 41 132 63
22 52 283 -140 378 -277 33 -48 54 -67 54 -49 0 25 -111 166 -172 218 -24 21
-74 58 -113 84 -82 54 -85 57 -85 100 0 106 -124 208 -280 231 -36 5 -80 13
-97 17 -18 3 -33 4 -33 1z m115 -47 c3 -5 20 -10 36 -10 33 0 121 -40 162 -73
33 -28 64 -97 43 -97 -7 0 -19 7 -26 15 -7 8 -23 15 -37 15 l-24 0 21 -22 c11
-12 18 -23 17 -25 -11 -10 -105 49 -120 76 -10 17 -36 52 -58 77 -21 25 -39
47 -39 50 0 8 19 4 25 -6z m173 -221 c35 -17 61 -33 58 -37 -7 -6 -63 -28
-116 -44 -51 -15 -157 -3 -213 24 l-48 24 88 37 c103 43 132 43 231 -4z"/>
<path d="M3462 4399 c-49 -26 -59 -35 -47 -42 11 -6 35 1 79 22 69 34 91 38
99 17 6 -15 -20 -26 -61 -26 -38 0 -14 -20 26 -21 27 -1 31 -3 12 -6 -38 -7
-46 -21 -18 -28 46 -12 157 31 157 60 0 23 -52 46 -117 52 -62 4 -72 2 -130
-28z m183 -20 c10 -14 1 -21 -19 -13 -9 3 -13 10 -10 15 7 12 21 11 29 -2z"/>
<path d="M3330 4360 c0 -5 6 -10 14 -10 8 0 18 5 21 10 3 6 -3 10 -14 10 -12
0 -21 -4 -21 -10z"/>
<path d="M1353 3946 c-9 -13 28 -37 48 -31 10 3 29 3 43 -1 l26 -6 0 -478 c0
-374 -3 -480 -13 -488 -7 -6 -33 -12 -57 -14 -32 -2 -45 -7 -45 -18 0 -13 46
-15 355 -15 l355 0 1 97 c1 72 -2 100 -12 109 -11 9 -16 6 -24 -16 -5 -14 -10
-33 -10 -42 0 -31 -32 -81 -58 -92 -15 -5 -106 -11 -202 -13 l-175 -3 0 485 0
485 30 3 c58 5 76 12 73 29 -3 13 -26 16 -166 17 -94 1 -166 -2 -169 -8z"/>
<path d="M2650 3950 c-7 -4 -10 -15 -7 -24 5 -12 21 -16 67 -16 l60 0 2 -302
c3 -431 0 -660 -9 -669 -5 -4 -30 -9 -58 -11 -36 -2 -50 -7 -50 -18 0 -13 26
-15 170 -15 144 0 170 2 170 15 0 10 -12 16 -35 18 -19 1 -45 5 -58 7 l-23 6
1 497 c0 273 0 502 0 507 0 12 -211 17 -230 5z"/>
<path d="M4863 3942 c-33 -5 -65 -51 -58 -82 9 -36 32 -50 82 -50 43 0 43 0
43 -35 0 -53 -37 -121 -93 -169 -34 -30 -48 -49 -44 -60 10 -24 20 -20 75 29
71 64 107 140 106 226 0 102 -40 152 -111 141z"/>
<path d="M2325 3928 c-46 -25 -59 -74 -29 -116 22 -31 82 -30 118 3 34 31 33
60 -3 96 -31 31 -53 35 -86 17z"/>
<path d="M4165 3593 c-69 -24 -135 -91 -135 -136 0 -35 24 -67 51 -67 38 0 58
29 61 88 3 54 5 58 38 74 52 25 130 23 170 -4 62 -42 74 -69 78 -171 3 -70 1
-95 -9 -103 -8 -6 -54 -17 -102 -24 -242 -34 -347 -120 -308 -250 24 -80 114
-126 226 -117 67 5 107 22 159 68 l35 30 14 -34 c16 -37 72 -67 128 -67 36 0
89 28 89 47 0 16 -24 17 -49 1 -15 -9 -24 -8 -44 5 -34 22 -39 66 -36 310 3
217 -2 244 -51 296 -60 62 -214 88 -315 54z m258 -468 l-3 -100 -45 -41 c-112
-104 -255 -59 -255 79 0 79 46 116 183 147 128 28 122 33 120 -85z"/>
<path d="M5246 3603 c-26 -7 -87 -46 -108 -70 -45 -50 -59 -133 -34 -194 25
-60 67 -89 211 -144 147 -56 194 -112 163 -193 -25 -66 -114 -103 -211 -87
-85 14 -129 57 -142 137 -5 29 -11 38 -23 36 -14 -3 -17 -17 -17 -88 l0 -84
70 -18 c170 -45 276 -31 363 46 69 61 82 180 28 250 -32 43 -70 63 -212 116
-117 42 -151 67 -160 116 -15 83 66 150 175 142 98 -7 150 -45 166 -121 4 -20
11 -27 23 -25 14 3 17 15 17 77 l0 75 -80 18 c-75 16 -186 22 -229 11z"/>
<path d="M2293 3592 c-71 -2 -105 -7 -113 -17 -17 -20 21 -38 65 -29 66 12 65
15 65 -311 0 -328 6 -305 -76 -305 -37 0 -44 -3 -44 -19 0 -18 10 -19 167 -19
92 0 171 2 175 4 4 3 5 11 1 19 -3 11 -21 15 -59 15 l-54 0 -2 332 c-2 211 -7
332 -13 332 -5 1 -56 0 -112 -2z"/>
<path d="M3088 3583 c-16 -19 0 -33 40 -33 20 0 42 -4 48 -8 5 -4 39 -72 73
-152 94 -214 98 -224 162 -359 33 -68 59 -130 59 -137 0 -7 -23 -58 -50 -113
-69 -137 -108 -165 -168 -121 -43 31 -83 35 -110 10 -74 -69 82 -134 189 -80
22 12 54 40 70 64 31 43 106 210 201 446 27 69 61 149 74 178 13 29 24 58 24
65 0 7 4 17 8 22 5 6 24 47 42 93 33 83 35 85 95 94 12 2 20 11 20 22 0 18 -8
19 -118 19 -65 -1 -121 -4 -124 -7 -3 -3 -3 -12 0 -21 4 -10 20 -15 47 -15 28
0 43 -5 47 -16 6 -17 -181 -500 -194 -498 -4 1 -29 51 -54 110 -132 307 -160
378 -155 390 3 7 25 14 53 16 39 2 48 6 48 22 0 17 -11 19 -158 20 -113 1
-162 -2 -169 -11z"/>
<path d="M2163 2282 c-60 -3 -80 -13 -48 -26 12 -4 15 -30 15 -145 0 -128 -2
-141 -20 -154 -11 -8 -17 -17 -13 -20 3 -4 56 -7 117 -7 110 0 112 1 149 31
50 42 51 85 3 131 l-34 32 24 23 c33 30 32 77 -2 108 -15 14 -34 25 -43 26 -9
0 -32 1 -51 2 -19 1 -63 1 -97 -1z m144 -48 c18 -25 16 -68 -4 -87 -19 -16
-91 -26 -110 -14 -10 6 -8 81 3 116 6 20 94 8 111 -15z m5 -145 c27 -14 33
-67 11 -98 -20 -25 -91 -47 -120 -36 -13 4 -19 135 -8 147 8 7 96 -3 117 -13z"/>
<path d="M2722 2268 c-7 -7 -12 -15 -12 -19 0 -4 -17 -45 -39 -91 -21 -45 -45
-101 -52 -122 -8 -22 -26 -52 -41 -67 -16 -15 -28 -30 -28 -33 0 -3 23 -6 50
-6 54 0 56 1 39 28 -8 13 -7 27 5 55 l15 38 68 -3 67 -3 15 -39 c13 -35 13
-40 -2 -51 -25 -18 -10 -25 55 -25 61 0 71 8 39 31 -18 13 -121 225 -121 249
0 16 -29 70 -38 70 -5 0 -13 -5 -20 -12z m33 -135 c11 -29 17 -54 14 -56 -11
-9 -89 6 -89 18 0 24 42 107 50 99 4 -5 15 -33 25 -61z"/>
<path d="M3080 2270 c0 -6 7 -13 15 -16 12 -5 15 -31 15 -145 0 -129 -1 -139
-20 -149 -33 -18 -13 -30 49 -30 66 0 79 7 51 27 -16 11 -20 26 -20 74 0 51 2
59 19 59 20 0 111 -111 111 -135 0 -17 23 -25 76 -25 50 0 57 12 16 29 -32 13
-152 151 -152 174 0 21 105 115 133 119 42 6 22 23 -30 26 -50 3 -53 2 -53
-22 0 -24 -91 -136 -111 -136 -5 0 -9 29 -9 65 0 61 2 65 25 71 14 3 22 10 19
15 -7 13 -134 11 -134 -1z"/>
<path d="M3580 2270 c0 -5 6 -10 14 -10 22 0 26 -24 26 -156 0 -109 -2 -126
-19 -143 -11 -11 -17 -22 -13 -25 3 -3 65 -6 137 -6 l133 0 6 32 c4 21 2 37
-8 46 -12 12 -16 10 -28 -14 -12 -27 -18 -29 -77 -32 -37 -2 -67 1 -71 7 -5 9
-6 33 -1 114 1 25 62 23 86 -3 25 -27 35 -17 35 36 0 46 -13 57 -34 28 -7 -9
-28 -17 -47 -17 l-34 -2 -3 63 -3 62 61 0 c55 0 61 -2 70 -25 18 -46 49 -20
36 30 l-6 25 -130 0 c-80 0 -130 -4 -130 -10z"/>
<path d="M4060 2274 c0 -4 7 -12 16 -19 13 -9 16 -35 17 -144 1 -127 0 -133
-21 -150 -30 -22 -19 -31 37 -31 52 0 83 13 56 23 -13 6 -15 19 -13 69 3 63 3
63 32 61 37 -3 58 -25 80 -82 21 -55 40 -70 88 -71 44 0 58 15 23 24 -16 4
-32 21 -46 49 -12 23 -31 53 -43 66 -17 19 -18 25 -7 29 31 11 61 51 61 82 0
77 -42 100 -180 100 -55 0 -100 -3 -100 -6z m203 -42 c10 -9 17 -29 17 -53 0
-48 -31 -72 -87 -67 l-38 3 -3 59 c-4 82 -1 88 50 80 24 -4 51 -14 61 -22z"/>
<path d="M4515 2270 c-3 -6 4 -14 17 -19 13 -5 49 -45 82 -90 58 -80 58 -82
54 -138 -3 -38 -10 -58 -21 -65 -32 -17 -17 -28 41 -28 67 0 80 7 52 27 -16
11 -20 26 -20 73 0 50 5 66 33 106 17 25 37 53 42 62 13 22 46 52 57 52 4 0 8
7 8 15 0 11 -12 15 -45 15 -45 0 -54 -7 -35 -26 7 -7 -2 -30 -30 -72 -23 -34
-43 -62 -44 -62 -2 0 -20 25 -40 55 -37 57 -45 85 -23 85 8 0 7 4 -3 10 -20
13 -117 13 -125 0z"/>
</g>
</svg>
